
<svg version="1.0" xmlns="http://www.w3.org/2000/svg"
 width="1024.000000pt" height="1024.000000pt" viewBox="0 0 1024.000000 1024.000000"
 preserveAspectRatio="xMidYMid meet">
<metadata>
Created by potrace 1.16, written by Peter Selinger 2001-2019
</metadata>
<g transform="translate(0.000000,1024.000000) scale(0.100000,-0.100000)"
fill="#000000" stroke="none">
<path d="M4543 7867 c-9 -17 -166 -186 -338 -367 -66 -69 -219 -231 -340 -359
-121 -129 -280 -294 -354 -366 l-133 -132 187 -13 c211 -15 199 -19 210 64 l6
51 390 389 389 389 47 -43 c27 -24 179 -168 338 -320 160 -152 304 -289 320
-303 l30 -25 0 -426 c0 -234 1 -426 3 -426 2 0 88 18 190 40 403 86 770 128
1043 118 l97 -3 6 65 c8 91 7 383 -2 396 -4 7 -43 17 -87 24 -44 6 -165 24
-270 40 -392 61 -652 99 -717 105 -60 6 -69 10 -85 36 -11 16 -158 172 -329
346 -287 295 -470 493 -554 603 l-35 45 43 -34 c58 -45 435 -411 707 -686
l220 -222 95 -8 c102 -7 413 -48 680 -90 256 -39 613 -96 635 -100 13 -2 2 12
-30 38 -91 77 -258 235 -520 491 l-260 254 -5 158 -5 159 -85 23 c-47 13 -112
32 -145 42 -33 10 -61 17 -62 16 -9 -8 -14 -336 -8 -490 l7 -188 70 -81 c72
-83 76 -111 10 -61 -55 42 -281 263 -312 306 l-27 37 5 150 5 150 -39 9 c-22
5 -120 28 -219 51 -99 22 -268 61 -375 85 -107 24 -231 50 -275 56 -44 6 -88
13 -97 16 -9 3 -20 -2 -25 -9z"/>
<path d="M3012 6822 c-54 -124 -74 -221 -79 -377 -4 -124 -1 -172 17 -275 53
-310 195 -589 409 -801 238 -237 481 -367 801 -430 165 -33 411 -33 600 0 153
26 435 105 650 181 422 149 826 254 1085 279 329 33 412 44 520 65 66 14 156
27 200 31 129 10 385 -13 661 -60 131 -23 185 -41 243 -80 28 -19 51 -34 51
-31 0 2 -12 24 -26 50 -17 31 -41 55 -72 73 -26 15 -78 48 -117 73 -38 26 -97
62 -130 80 -33 18 -65 39 -72 45 -6 7 -63 34 -125 60 -62 25 -146 64 -185 86
-40 22 -85 44 -100 50 l-27 10 19 -23 c11 -12 30 -31 43 -42 l23 -19 -26 -17
c-29 -19 -85 -24 -475 -40 -225 -9 -609 -50 -795 -85 -280 -51 -490 -102 -700
-168 -232 -73 -591 -162 -747 -184 -148 -21 -464 -23 -583 -4 -152 24 -395 92
-395 111 0 4 36 -5 79 -21 43 -15 81 -25 85 -22 3 3 22 -2 41 -12 20 -9 63
-19 96 -21 l59 -5 0 31 c0 23 -4 30 -20 30 -16 0 -20 7 -20 36 l0 37 -48 -5
c-50 -5 -72 7 -72 37 0 11 -11 15 -40 15 -22 0 -40 5 -40 11 0 16 -26 39 -44
39 -9 0 -16 7 -16 15 0 8 -15 18 -35 24 -35 9 -65 32 -65 48 0 5 -9 15 -20 23
-11 8 -20 20 -20 27 0 7 -4 13 -10 13 -5 0 -10 9 -10 20 0 11 -4 20 -10 20 -5
0 -10 18 -10 39 0 22 -6 42 -12 45 -10 5 -10 7 0 12 6 3 12 23 12 45 0 21 4
39 10 39 5 0 9 12 8 26 -3 28 -31 49 -50 38 -7 -4 -8 -3 -4 4 3 6 -3 16 -14
22 -11 6 -20 7 -20 3 0 -4 -6 1 -13 12 -8 10 -19 15 -26 11 -6 -4 -10 -3 -9 2
3 11 -97 93 -106 86 -3 -2 -4 -1 -1 3 8 10 -16 33 -28 26 -6 -3 -7 -1 -3 5 4
6 -10 32 -29 58 -71 93 -114 213 -148 414 -19 110 -24 131 -37 144 -5 5 -10
19 -10 29 0 16 -6 18 -29 15 -20 -3 -28 -1 -23 6 6 11 12 66 7 66 -1 0 -12
-22 -23 -48z"/>
<path d="M4300 6819 c0 -14 3 -60 6 -102 l7 -77 94 0 94 0 -3 101 -3 100 -98
2 -97 2 0 -26z"/>
<path d="M4570 6752 c0 -118 -4 -115 118 -110 l72 3 5 98 4 97 -47 0 c-26 0
-71 3 -99 6 l-53 7 0 -101z"/>
<path d="M4310 6460 l0 -100 79 0 c44 0 85 -2 93 -5 10 -4 13 16 12 97 l-1
103 -91 3 -92 3 0 -101z"/>
<path d="M4570 6455 l0 -105 95 0 95 0 0 105 0 105 -95 0 -95 0 0 -105z"/>
<path d="M6765 5293 c-353 -30 -747 -132 -1290 -333 -260 -97 -468 -161 -605
-189 -143 -28 -373 -54 -442 -49 l-58 4 73 -37 c220 -112 546 -178 818 -166
310 15 569 79 844 211 199 96 347 201 544 386 177 167 191 181 169 178 -7 -1
-31 -3 -53 -5z"/>
<path d="M8522 4479 c-19 -12 -38 -32 -42 -45 -24 -61 48 -154 118 -154 48 0
95 29 111 68 12 28 11 35 -9 66 -46 76 -121 103 -178 65z m76 -15 c33 -23 27
-36 -15 -32 l-38 3 -3 -42 c-3 -45 11 -56 36 -31 19 19 14 30 -8 18 -17 -9
-20 -8 -20 14 0 30 15 42 24 20 4 -10 14 -14 26 -11 27 7 26 -22 -1 -57 -26
-33 -20 -42 18 -24 31 15 57 68 36 75 -14 5 -18 33 -5 33 22 0 44 -40 37 -67
-11 -45 -33 -63 -80 -63 -32 0 -47 6 -67 28 -38 39 -45 90 -18 125 24 31 46
34 78 11z"/>
<path d="M5212 4220 c-28 -4 -85 -23 -125 -42 -180 -86 -278 -250 -264 -439
10 -131 58 -231 154 -321 61 -56 112 -83 195 -103 228 -54 450 50 553 259 80
160 52 363 -68 494 -110 120 -278 177 -445 152z m178 -216 c69 -32 96 -56 125
-115 92 -179 -24 -382 -218 -381 -142 0 -243 94 -255 238 -16 203 169 341 348
258z"/>
<path d="M7217 4220 c-69 -12 -150 -54 -188 -97 -53 -61 -72 -115 -67 -198 7
-146 74 -203 314 -266 141 -37 175 -59 158 -107 -15 -43 -67 -64 -139 -57 -65
6 -164 49 -216 93 l-31 26 -20 -27 c-11 -15 -40 -51 -64 -80 l-44 -52 37 -33
c20 -18 65 -46 100 -62 188 -89 394 -77 515 29 106 93 118 265 26 363 -37 39
-93 64 -226 102 -140 40 -179 58 -194 91 -23 50 52 104 126 92 48 -8 140 -45
181 -72 20 -14 38 -25 40 -25 2 0 29 37 60 81 64 94 64 96 -29 143 -100 50
-241 74 -339 56z"/>
<path d="M2423 3930 l-1 -290 -27 -46 c-19 -32 -39 -52 -68 -65 -47 -21 -127
-25 -160 -8 -41 21 -87 73 -97 109 -5 19 -10 158 -12 307 l-3 273 -112 0 -113
0 6 -282 c4 -205 10 -298 21 -338 54 -198 204 -301 420 -288 146 8 274 93 332
218 23 50 26 71 32 240 4 102 8 245 8 318 l1 132 -99 0 c-55 0 -105 2 -113 5
-11 4 -13 -48 -15 -285z"/>
<path d="M5955 3910 c4 -168 11 -323 17 -345 32 -128 121 -216 253 -251 67
-18 199 -18 262 1 70 21 168 89 209 144 66 90 69 111 69 448 l0 303 -115 0
-115 0 -3 -293 c-4 -277 -5 -294 -26 -332 -12 -24 -36 -47 -56 -57 -43 -22
-140 -24 -178 -4 -36 19 -78 65 -91 99 -7 18 -11 134 -11 307 l0 279 -111 3
-110 3 6 -305z"/>
<path d="M7833 3946 c4 -148 7 -352 7 -453 l0 -183 343 0 342 0 1 99 2 98
-127 6 c-69 4 -177 7 -238 7 l-113 0 0 76 0 76 212 -8 c198 -6 211 -6 205 10
-4 10 -7 53 -7 97 l0 79 -211 0 -212 0 7 38 c3 20 6 60 6 87 l0 50 92 -2 c51
-2 157 -4 236 -5 l142 -3 0 97 0 97 -347 3 -346 3 6 -269z"/>
<path d="M2860 3761 l0 -451 105 0 105 0 0 140 0 140 78 0 78 0 18 -37 c10
-21 50 -83 89 -139 l72 -102 123 -4 c90 -2 122 0 122 9 0 7 -22 41 -50 77 -27
37 -72 95 -100 132 -27 36 -50 73 -50 83 0 11 20 30 49 48 120 75 163 269 87
397 -34 58 -72 91 -141 123 l-60 28 -262 3 -263 4 0 -451z m475 239 c23 -11
47 -32 53 -46 26 -56 7 -133 -42 -165 -14 -9 -61 -15 -147 -17 l-125 -4 0 126
1 126 109 0 c90 0 117 -4 151 -20z"/>
<path d="M3820 3862 c0 -192 3 -396 6 -453 l7 -104 103 3 104 3 0 177 0 177
185 0 185 1 0 -178 0 -178 110 0 110 0 0 450 0 450 -111 0 -111 0 4 -173 3
-173 -187 0 -188 0 0 173 0 173 -110 0 -110 0 0 -348z"/>
<path d="M4252 2988 c-17 -22 -110 -221 -120 -260 l-10 -38 36 0 c31 0 40 5
55 31 12 21 22 29 33 25 9 -3 34 -6 55 -6 35 0 41 -4 50 -29 9 -25 15 -29 45
-28 19 1 34 6 34 12 0 39 -94 251 -127 287 -19 21 -37 23 -51 6z"/>
<path d="M5026 2945 c-7 -64 -6 -214 2 -240 6 -18 16 -20 115 -20 l107 -1 0
33 0 32 -72 3 c-65 3 -73 5 -73 23 0 18 8 20 63 23 l62 3 0 34 0 35 -59 0
c-45 0 -60 4 -65 16 -13 33 14 46 81 42 l63 -4 0 34 0 35 -52 -5 c-29 -3 -78
-2 -109 1 l-57 7 -6 -51z"/>
<path d="M5395 2957 c-25 -24 -45 -51 -45 -59 0 -21 58 -71 101 -87 52 -19 64
-27 67 -43 5 -26 -28 -29 -73 -7 -41 20 -43 21 -69 4 -22 -15 -24 -20 -14 -33
19 -22 88 -52 123 -52 59 0 115 53 115 109 0 30 -46 70 -94 82 -51 13 -69 29
-60 53 8 20 24 20 68 0 40 -20 66 -13 66 16 0 27 -55 60 -102 60 -31 0 -46 -8
-83 -43z"/>
<path d="M5690 2957 l0 -42 45 3 44 4 3 -114 3 -113 33 0 32 0 0 118 0 117 39
0 c45 0 56 10 47 46 -6 24 -7 24 -126 24 l-120 0 0 -43z"/>
<path d="M6109 2983 c-19 -23 -98 -194 -115 -250 -13 -42 -13 -43 11 -43 13 0
30 -3 39 -6 13 -5 16 1 16 25 l0 31 70 0 c64 0 70 -2 75 -22 5 -19 14 -23 45
-25 26 -2 40 2 40 10 0 6 -29 75 -64 152 -67 146 -85 166 -117 128z"/>
<path d="M6348 2959 l-4 -40 41 3 40 3 5 -115 5 -115 33 -1 32 -2 0 119 0 119
45 0 c44 0 45 1 45 33 l0 32 -119 2 -119 3 -4 -41z"/>
<path d="M6700 2881 c0 -64 3 -132 6 -151 l6 -35 109 3 c106 3 109 4 109 26 0
27 -29 36 -110 36 -43 0 -48 2 -43 20 4 16 14 20 48 20 61 0 75 8 75 41 0 29
0 29 -60 29 l-60 0 0 30 0 30 69 0 c73 0 86 7 77 43 -5 21 -11 22 -116 23
l-110 1 0 -116z"/>
<path d="M3430 2840 l0 -150 24 0 c13 0 31 -2 38 -5 11 -4 14 6 13 47 0 48 2
53 20 50 27 -5 51 -27 70 -68 14 -30 20 -34 55 -34 43 0 53 17 23 41 -9 8 -22
27 -29 44 -11 27 -10 33 12 62 45 59 26 128 -42 153 -14 6 -61 10 -105 10
l-79 0 0 -150z"/>
<path d="M3800 2932 c0 -31 3 -100 6 -152 l7 -95 106 2 106 2 0 28 c0 28 -1
28 -70 33 -66 5 -70 7 -73 30 -3 25 -2 25 63 22 l65 -4 0 31 c0 33 -10 38 -85
43 -30 2 -41 8 -43 22 -5 27 15 36 81 36 56 0 57 1 57 28 l0 29 -110 1 -110 2
0 -58z"/>
<path d="M4546 2974 c-3 -9 -6 -77 -6 -152 l0 -137 105 0 105 0 0 38 0 37 -70
0 -70 0 0 115 0 115 -29 0 c-17 0 -31 -6 -35 -16z"/>
<path d="M2340 2870 c-26 -16 54 -20 450 -20 283 0 411 3 404 10 -12 12 -836
21 -854 10z"/>
<path d="M7160 2864 c0 -12 68 -14 389 -14 373 0 511 5 511 20 0 3 -202 6
-450 7 -372 0 -450 -2 -450 -13z"/>
</g>
</svg>
